<svg width="22" height="26" viewBox="0 0 22 26" fill="none" xmlns="http://www.w3.org/2000/svg">
<path d="M1.28502 4.73587H1.28503H5.73533C6.00678 3.62931 6.62941 2.63776 7.5131 1.91183C8.4584 1.1353 9.64384 0.710822 10.8672 0.710822C12.0905 0.710822 13.276 1.1353 14.2213 1.91183C15.105 2.63776 15.7276 3.62931 15.9991 4.73587H20.4494C20.6721 4.73588 20.8857 4.82437 21.0432 4.98186C21.2007 5.13936 21.2892 5.35296 21.2892 5.57571V24.7402C21.2892 24.7402 21.2892 24.7403 21.2892 24.7403C21.2892 24.8506 21.2675 24.9598 21.2253 25.0617C21.1831 25.1636 21.1213 25.2562 21.0433 25.3342C20.9653 25.4122 20.8726 25.4741 20.7707 25.5163C20.6688 25.5584 20.5596 25.5802 20.4494 25.5801L1.28502 4.73587ZM1.28502 4.73587C1.06229 4.73588 0.848681 4.82437 0.691187 4.98186C0.533692 5.13936 0.445208 5.35296 0.445197 5.57569V5.57571M1.28502 4.73587L0.445197 5.57571M0.445197 5.57571V24.7402M0.445197 5.57571V24.7402M0.445197 24.7402C0.445197 24.7402 0.445197 24.7403 0.445197 24.7403M0.445197 24.7402V24.7403M0.445197 24.7403C0.445178 24.8506 0.466883 24.9598 0.509073 25.0617M0.445197 24.7403L0.509073 25.0617M0.509073 25.0617C0.551271 25.1636 0.613137 25.2562 0.691135 25.3342L0.509073 25.0617ZM0.691138 25.3342C0.769138 25.4122 0.86174 25.4741 0.963654 25.5163C1.06555 25.5584 1.17475 25.5802 1.28503 25.5801C1.28506 25.5801 1.28508 25.5801 1.28511 25.5801H20.4493L0.691138 25.3342ZM10.8672 2.39048C11.666 2.39202 12.4418 2.65856 13.0729 3.14832C13.6038 3.5604 14.0072 4.11091 14.2407 4.73587H7.49364C7.72723 4.11091 8.13055 3.5604 8.66153 3.14832C9.29262 2.65856 10.0684 2.39202 10.8672 2.39048ZM2.12486 23.9005V6.41554H5.58178V8.39916C5.58178 8.6219 5.67027 8.83551 5.82777 8.99301C5.98527 9.15051 6.19888 9.23899 6.42162 9.23899C6.64435 9.23899 6.85797 9.15051 7.01547 8.99301C7.17297 8.83551 7.26145 8.6219 7.26145 8.39916V6.41554H14.4729V8.39916C14.4729 8.6219 14.5614 8.83551 14.7189 8.99301C14.8764 9.15051 15.09 9.23899 15.3128 9.23899C15.5355 9.23899 15.7491 9.15051 15.9066 8.99301C16.0641 8.83551 16.1526 8.6219 16.1526 8.39916V6.41554H19.6095V23.9005H2.12486Z" fill="#111111" stroke="#111111" stroke-width="0.578356"/>
</svg>
