<svg width="38" height="38" viewBox="0 0 38 38" fill="none" xmlns="http://www.w3.org/2000/svg">
<path fill-rule="evenodd" clip-rule="evenodd" d="M18.9558 0C8.53533 0 0.0878906 8.44744 0.0878906 18.8679C0.0878906 29.2883 8.53533 37.7358 18.9558 37.7358C29.3762 37.7358 37.8237 29.2883 37.8237 18.8679C37.8237 8.44744 29.3762 0 18.9558 0ZM14.8072 8.86584C15.8805 8.817 16.2235 8.80505 18.9565 8.80505H18.9533C21.6871 8.80505 22.0288 8.817 23.1022 8.86584C24.1735 8.9149 24.9051 9.0845 25.5467 9.33335C26.2091 9.59017 26.7689 9.93399 27.3286 10.4937C27.8884 11.0531 28.2322 11.6145 28.4901 12.2764C28.7375 12.9162 28.9073 13.6474 28.9576 14.7187C29.0058 15.7921 29.0184 16.1351 29.0184 18.868C29.0184 21.601 29.0058 21.9431 28.9576 23.0165C28.9073 24.0874 28.7375 24.8188 28.4901 25.4589C28.2322 26.1205 27.8884 26.6819 27.3286 27.2413C26.7695 27.801 26.2089 28.1457 25.5473 28.4027C24.907 28.6515 24.1749 28.8211 23.1037 28.8702C22.0303 28.9191 21.6883 28.931 18.9552 28.931C16.2225 28.931 15.8797 28.9191 14.8063 28.8702C13.7352 28.8211 13.0038 28.6515 12.3635 28.4027C11.7021 28.1457 11.1407 27.801 10.5815 27.2413C10.022 26.6819 9.67818 26.1205 9.42094 25.4586C9.1723 24.8188 9.0027 24.0876 8.95343 23.0163C8.9048 21.9429 8.89264 21.601 8.89264 18.868C8.89264 16.1351 8.90522 15.7919 8.95322 14.7185C9.00144 13.6476 9.17126 12.9162 9.42073 12.2761C9.6786 11.6145 10.0224 11.0531 10.5822 10.4937C11.1415 9.9342 11.7029 9.59038 12.3648 9.33335C13.0046 9.0845 13.7359 8.9149 14.8072 8.86584Z" fill="white"/>
<path fill-rule="evenodd" clip-rule="evenodd" d="M18.0538 10.6182C18.2291 10.618 18.4177 10.618 18.6212 10.6181L18.9566 10.6182C21.6434 10.6182 21.9618 10.6279 23.0229 10.6761C24.004 10.721 24.5365 10.8849 24.8912 11.0226C25.3608 11.205 25.6956 11.4231 26.0476 11.7753C26.3998 12.1275 26.6179 12.4629 26.8007 12.9325C26.9384 13.2868 27.1026 13.8193 27.1472 14.8005C27.1954 15.8613 27.2059 16.1799 27.2059 18.8655C27.2059 21.551 27.1954 21.8697 27.1472 22.9305C27.1023 23.9116 26.9384 24.4441 26.8007 24.7984C26.6183 25.268 26.3998 25.6024 26.0476 25.9544C25.6954 26.3066 25.361 26.5247 24.8912 26.7071C24.5369 26.8454 24.004 27.0089 23.0229 27.0538C21.9621 27.102 21.6434 27.1125 18.9566 27.1125C16.2696 27.1125 15.9511 27.102 14.8903 27.0538C13.9092 27.0085 13.3767 26.8446 13.0217 26.7068C12.5521 26.5245 12.2167 26.3064 11.8645 25.9542C11.5123 25.602 11.2942 25.2674 11.1114 24.7976C10.9737 24.4433 10.8095 23.9108 10.7649 22.9297C10.7167 21.8689 10.707 21.5502 10.707 18.863C10.707 16.1757 10.7167 15.8587 10.7649 14.7979C10.8098 13.8168 10.9737 13.2843 11.1114 12.9296C11.2938 12.46 11.5123 12.1245 11.8645 11.7723C12.2167 11.4201 12.5521 11.2021 13.0217 11.0193C13.3764 10.8809 13.9092 10.7174 14.8903 10.6723C15.8186 10.6304 16.1784 10.6178 18.0538 10.6157V10.6182ZM24.3277 12.2894C23.661 12.2894 23.1202 12.8296 23.1202 13.4965C23.1202 14.1632 23.661 14.7041 24.3277 14.7041C24.9944 14.7041 25.5353 14.1632 25.5353 13.4965C25.5353 12.8298 24.9944 12.289 24.3277 12.289V12.2894ZM13.789 18.8682C13.789 16.0144 16.1028 13.7006 18.9566 13.7005C21.8105 13.7005 24.1237 16.0143 24.1237 18.8682C24.1237 21.7221 21.8107 24.0349 18.9568 24.0349C16.1029 24.0349 13.789 21.7221 13.789 18.8682Z" fill="white"/>
<path fill-rule="evenodd" clip-rule="evenodd" d="M18.9569 15.5139C20.8093 15.5139 22.3112 17.0156 22.3112 18.8682C22.3112 20.7207 20.8093 22.2226 18.9569 22.2226C17.1042 22.2226 15.6025 20.7207 15.6025 18.8682C15.6025 17.0156 17.1042 15.5139 18.9569 15.5139V15.5139Z" fill="white"/>
</svg>
