<svg width="183" height="196" viewBox="0 0 183 196" fill="none" xmlns="http://www.w3.org/2000/svg">
<path d="M182.116 178.978L182.355 178.142C182.355 178.142 182.447 177.982 182.5 177.891C182.627 177.631 182.715 177.354 182.762 177.068C182.762 177.068 182.854 176.908 182.894 176.84C182.986 176.397 182.917 175.937 182.7 175.541C181.735 171.94 176.805 166.718 166.987 156.728C162.179 151.821 157.215 146.763 153.667 142.523C147.97 135.589 142.676 128.335 137.81 120.796L133.548 114.469C130.312 109.739 126.919 105.071 123.526 100.403C120.133 95.7349 116.978 91.2345 113.775 86.5541C109.455 80.7549 105.844 74.4596 103.019 67.8024C100.642 60.5035 99.2035 52.9319 98.7377 45.27L98.6549 43.3044C99.206 38.2223 100.729 33.2935 103.141 28.7863C104.596 25.791 105.636 23.6211 104.843 21.672C104.621 21.16 104.291 20.7023 103.875 20.3306C103.459 19.9589 102.967 19.6822 102.433 19.5195C101.643 19.2386 100.795 19.1616 99.9672 19.2957C99.1395 19.4298 98.359 19.7706 97.698 20.2865C94.1912 22.828 92.4255 29.4188 92.485 32.9538L92.4609 33.9445C91.5604 33.6068 90.5954 33.4762 89.6374 33.5624C87.3746 33.9708 85.3073 35.1076 83.7503 36.7996L72.2364 47.199C69.6065 50.0497 66.2414 52.12 62.5112 53.1822C59.7456 53.441 56.9642 52.8925 54.5038 51.6032C50.0377 49.5561 46.1393 46.4489 43.1477 42.5518C40.1561 38.6548 38.1618 34.0858 37.3384 29.2424C37.0614 27.5604 36.5206 24.1737 33.6868 23.1768C36.025 19.9169 37.9836 16.4007 39.5245 12.6966C41.006 9.85892 41.3188 6.55432 40.3961 3.4891C40.164 2.81907 39.7991 2.20274 39.3233 1.67698C38.8476 1.15122 38.2706 0.726838 37.627 0.429217C36.4102 0.0391811 35.1021 0.0383299 33.8848 0.426777C32.6674 0.815227 31.6016 1.57364 30.8356 2.59639C29.1463 4.39535 27.8241 6.50646 26.9429 8.81152C25.9114 12.1577 25.3221 15.6245 25.19 19.1236C25.0469 22.2316 24.5449 25.3126 23.694 28.3053L22.8942 27.2652C22.5249 26.7309 21.9712 26.3517 21.3395 26.2004C20.7077 26.0491 20.0424 26.1365 19.471 26.4456C12.9495 29.7644 6.78591 33.744 1.07728 38.3218C0.74839 38.5838 0.514367 38.9463 0.410985 39.3539C0.3076 39.7615 0.340548 40.1917 0.504793 40.5788C1.48504 42.9408 2.50484 45.2342 3.56418 47.4592C-4.67913 51.7119 -12.3408 57.008 -19.2318 63.2169L-20.7299 62.5955C-21.0759 62.4497 -21.457 62.4082 -21.8263 62.4763C-22.1955 62.5444 -22.5368 62.719 -22.808 62.9786C-23.698 63.8346 -24.4597 64.5212 -25.1326 65.1068C-26.2542 66.0343 -27.2749 67.0776 -28.1777 68.2193C-28.4251 68.5506 -28.5608 68.9519 -28.5653 69.3653L-28.4833 73.7048C-29.9478 74.9324 -31.4755 76.0826 -33.0602 77.1506C-37.4367 80.4076 -38.4936 81.289 -38.6986 82.5405C-39.9745 90.0229 -30.752 98.5134 -25.268 103.567L-24.239 104.526C-19.5966 108.554 -14.5278 112.062 -9.12314 114.989L-5.40177 117.137C-3.11871 118.455 -0.914755 119.91 1.28921 121.365C3.49318 122.821 5.71033 124.253 8.11718 125.673C8.42067 125.873 8.77769 125.975 9.14094 125.968C9.50419 125.96 9.85653 125.842 10.1512 125.63C10.594 125.337 11.1026 124.931 11.6113 124.524L11.7694 124.25L12.2032 124.501C13.0882 124.934 13.9425 125.427 14.7602 125.977L15.7191 126.531C15.5429 127.065 15.4828 127.631 15.5429 128.191C15.603 128.751 15.7819 129.291 16.0676 129.776C17.0516 130.955 18.2628 131.923 19.6289 132.624C20.8197 133.313 22.0584 133.916 23.3355 134.429C23.9921 134.762 24.7395 134.871 25.4639 134.739C26.1883 134.608 26.8498 134.243 27.3476 133.701C30.3128 135.243 33.1874 136.954 35.9573 138.824C35.7677 139.095 35.6354 139.401 35.5685 139.725C35.5017 140.049 35.5017 140.383 35.5685 140.706C35.6354 141.03 35.7676 141.336 35.9573 141.607C36.1469 141.878 36.3898 142.107 36.6711 142.28C40.3627 144.851 44.2655 147.104 48.3375 149.016C48.8936 149.252 49.5007 149.343 50.1017 149.28C50.7026 149.217 51.2777 149.002 51.7725 148.655C51.9638 148.457 52.2179 148.332 52.4912 148.301C52.7645 148.27 53.0402 148.335 53.2709 148.485C53.4535 148.591 53.5526 149.104 53.6211 149.144C52.9206 150.779 52.3888 151.964 68.2335 160.32C68.5972 160.514 69.0135 160.586 69.4211 160.525C69.8287 160.465 70.2061 160.275 70.4978 159.984L71.7427 158.724L75.0074 160.609C74.8888 160.814 74.7702 161.02 74.6515 161.225C74.5053 161.442 74.405 161.687 74.3567 161.945C74.3085 162.202 74.3133 162.467 74.3709 162.723C74.4286 162.978 74.5378 163.219 74.6919 163.431C74.846 163.643 75.0418 163.821 75.2672 163.955L77.0541 165.078C81.0397 167.797 85.3169 170.063 89.806 171.831C90.3868 171.935 90.9838 171.899 91.5483 171.728C92.1127 171.556 92.6287 171.254 93.0541 170.845L94.3327 171.583C95.4615 171.98 96.5066 172.584 97.4148 173.363C97.0132 174.03 96.8914 174.829 97.0761 175.586C97.2607 176.342 97.7368 176.995 98.4006 177.402C101.363 179.6 108.83 184.276 114.073 180.363C114.702 179.784 115.139 179.027 115.325 178.194L115.457 177.965C116.134 177.969 116.801 178.135 117.401 178.448C117.297 179.359 117.069 180.252 116.722 181.1C116.437 181.858 116.22 182.639 116.074 183.435C116.009 183.875 116.101 184.323 116.333 184.701C116.565 185.08 116.922 185.365 117.343 185.508L122.119 187.2C126.396 188.756 130.787 190.378 134.853 191.507L144.526 194.261C145.473 194.595 146.496 194.651 147.475 194.423C148.453 194.195 149.346 193.693 150.048 192.974C151.245 194.122 152.702 194.963 154.294 195.426C154.502 195.496 154.719 195.529 154.938 195.524C156.558 195.677 158.184 195.302 159.573 194.456L159.893 194.64C162.433 195.84 165.277 196.242 168.051 195.796C170.824 195.349 173.398 194.073 175.433 192.136C179.166 188.569 180.708 183.736 182.116 178.978ZM149.884 176.807C149.864 176.621 149.815 176.439 149.74 176.267C149.024 173.058 147.942 169.942 146.518 166.979C145.866 165.766 145.122 164.604 144.293 163.503C142.802 161.394 140.31 157.855 140.604 156.29C140.609 156.184 140.639 156.082 140.692 155.99C140.745 155.899 140.819 155.822 140.908 155.765C142.393 154.826 146.755 157.71 149.924 159.814C151.879 161.132 153.924 162.312 156.043 163.346L157.207 164.019C162.422 166.481 167.809 169.013 172.971 168.614C175.337 170.819 177.295 173.423 178.757 176.308L178.533 176.696C177.263 179.738 172.985 181.56 168.523 183.489L168.038 183.696C165.829 184.095 158.677 181.244 149.869 176.676L149.884 176.807ZM100.072 23.24C100.222 23.0973 100.409 22.9985 100.611 22.9544C100.814 22.9104 101.025 22.9227 101.221 22.99L101.244 23.0032C100.869 24.3589 100.339 25.6667 99.6632 26.9005C98.3898 29.4292 97.3048 32.0485 96.4172 34.7371C96.378 34.0142 96.3519 33.2686 96.3222 32.5818C96.3521 29.1543 97.6385 25.8569 99.9375 23.3146L100.072 23.24ZM32.4183 26.7975C33.1615 27.6748 33.5976 28.7711 33.66 29.9193C34.5873 35.397 36.8395 40.5651 40.2205 44.9736C43.6015 49.3821 48.0088 52.8973 53.0587 55.2133C56.2188 56.7871 59.7714 57.3987 63.2759 56.9722C67.7873 55.8361 71.8717 53.4142 75.0328 50.0007L86.4061 39.5811C87.3373 38.4915 88.5675 37.6989 89.9445 37.3013C90.7134 37.3317 91.4589 37.5744 92.0983 38.0026C92.7376 38.4309 93.2458 39.0279 93.5665 39.7274C94.3857 41.6084 94.8416 43.6275 94.9101 45.678C95.3977 53.6769 96.912 61.5799 99.4159 69.1924C102.343 76.1468 106.1 82.7216 110.606 88.7733C113.947 93.5328 117.111 98.0692 120.39 102.671C123.669 107.274 127.095 111.779 130.229 116.632L134.459 122.909C139.391 130.556 144.758 137.913 150.533 144.945C154.111 149.293 159.199 154.453 164.075 159.399L169.136 164.605C165.591 163.669 162.161 162.343 158.909 160.648L157.745 159.976C155.804 159.02 153.928 157.936 152.129 156.734C147.392 153.603 142.531 150.37 138.911 152.633C138.372 152.958 137.908 153.393 137.547 153.908C137.187 154.423 136.938 155.008 136.818 155.626C136.189 158.824 138.892 162.577 141.131 165.817C141.829 166.749 142.465 167.727 143.034 168.743C143.906 170.593 144.633 172.508 145.206 174.471C140.547 171.995 135.521 169.154 130.64 166.062C130.575 165.814 130.46 165.582 130.303 165.38L113.812 139.847C112.647 138.366 111.879 136.613 111.579 134.753C111.456 131.485 115.032 128.771 117.304 127.525C118.054 127.145 118.831 126.82 119.63 126.555C122.42 125.518 126.239 124.07 127.298 120.602C127.583 119.08 127.506 117.513 127.074 116.026C126.642 114.54 125.867 113.175 124.812 112.043L116.349 100.338C109.603 90.9336 102.652 81.1975 95.5032 71.804C93.4696 68.6403 90.713 66.0054 87.4609 64.1166C84.2923 62.662 80.8564 61.8807 77.3704 61.822C67.2371 61.7456 57.1077 62.2496 47.0321 63.3318C46.1353 62.4623 45.0372 61.8283 43.8358 61.4865C38.1693 54.5702 33.2394 47.0819 29.1261 39.1431C28.5459 37.9863 28.0149 36.7969 27.4611 35.5944C26.9073 34.3919 26.4378 33.3598 25.8805 32.2161L26.3769 31.6199C27.5736 30.0275 28.9864 28.6096 30.5746 27.4073C31.0652 27.0126 31.6809 26.8066 32.3102 26.8264L32.4183 26.7975ZM48.8319 108.51C48.445 108.473 48.0561 108.557 47.7191 108.751L45.462 106.017C39.9496 99.2726 34.2255 92.3149 25.7617 89.681L23.59 89.0664C21.8233 88.752 20.1395 88.0802 18.6416 87.0922C17.968 86.5077 17.3878 85.8236 16.9209 85.0638C24.6076 84.5094 29.0394 84.2675 30.0169 84.3144C35.1978 84.5563 40.1013 86.7251 43.7659 90.3954C45.5746 92.3876 47.1775 94.5573 48.5503 96.8715L48.8699 97.0561C50.7893 99.7427 52.3298 102.681 53.4481 105.787C53.5172 105.976 53.5309 106.181 53.4878 106.377C53.4446 106.573 53.3463 106.753 53.2044 106.895C51.9863 107.938 50.4355 108.511 48.8319 108.51ZM57.1811 104.594C55.9552 101.198 54.2638 97.9878 52.1553 95.0564L51.9279 94.7121C50.4362 92.2602 48.7025 89.9641 46.7528 87.8582C42.4015 83.4906 36.5743 80.908 30.4159 80.6179C28.8368 80.5585 21.6147 81.0463 15.4949 81.4703L15.2162 82.3749L14.6351 81.4305C11.3838 77.3099 7.07514 74.1489 2.16847 72.2847C13.8377 68.7853 25.8134 66.4035 37.9336 65.1715C39.0462 64.8902 40.2052 64.8441 41.3366 65.0361C42.468 65.228 43.5469 65.6539 44.5044 66.2864C45.5517 67.5303 59.7579 88.4261 67.4118 99.6335L74.2045 109.643L78.779 116.272C80.3319 118.539 81.8752 120.769 83.3429 123.078C83.8368 123.72 84.1758 124.468 84.3337 125.263C84.2844 125.726 84.1132 126.168 83.8375 126.544C83.5619 126.919 83.1916 127.215 82.7645 127.401C81.4948 127.895 80.1128 128.024 78.7735 127.776C78.5706 127.758 78.3662 127.774 78.1684 127.822C77.3694 126.739 76.4163 125.779 75.3396 124.971C72.8392 123.351 70.0085 122.309 67.0541 121.923C65.8879 121.676 64.7445 121.442 63.6178 121.126C58.5972 119.363 54.1584 116.253 50.7875 112.136C52.8577 111.746 54.7492 110.705 56.1863 109.164C56.7196 108.546 57.09 107.804 57.2637 107.006C57.4374 106.207 57.409 105.379 57.1811 104.594ZM77.1168 106.972L70.6489 97.4538L63.0731 86.322C72.084 86.5321 80.7034 91.6911 87.6236 95.8387C89.534 96.8316 91.254 98.1544 92.7039 99.746C93.1258 100.163 93.3675 100.729 93.3771 101.322C93.0968 101.692 92.7459 102.003 92.3447 102.236C91.9434 102.469 91.4998 102.621 91.0396 102.682C86.4712 104.214 81.7466 105.596 77.1432 106.926L77.1168 106.972ZM84.4908 131.107C85.6345 130.606 86.6052 129.779 87.2815 128.729C87.9579 127.68 88.31 126.454 88.2938 125.206C88.1095 123.766 87.557 122.399 86.6897 121.235C85.2123 118.891 83.6269 116.575 82.0512 114.295L79.4001 110.451C83.7347 109.271 88.0992 107.985 92.3987 106.602C93.4867 106.387 94.5033 105.902 95.355 105.191C96.2066 104.481 96.866 103.568 97.2726 102.536C97.4509 101.662 97.4187 100.759 97.1786 99.9006C96.9385 99.042 96.4974 98.253 95.8919 97.5988C94.1628 95.6385 92.0914 94.0094 89.779 92.791C82.4706 88.4193 73.385 82.9606 63.3474 82.7361C62.427 82.713 61.5064 82.7724 60.5966 82.9135C55.672 75.6259 52.0069 70.3744 49.8659 67.2814C59.018 66.35 68.2148 65.928 77.4138 66.0175C80.3582 66.0424 83.2648 66.6835 85.9464 67.8997C88.6413 69.5122 90.9259 71.7273 92.6208 74.3711C99.737 83.7155 106.701 93.4287 113.425 102.82L121.887 114.525C122.549 115.208 123.06 116.022 123.389 116.914C123.718 117.806 123.857 118.758 123.797 119.707C123.309 121.343 120.626 122.351 118.487 123.156C117.464 123.515 116.473 123.962 115.525 124.49C110.355 127.593 107.739 131.227 107.839 135.272C108.188 137.664 109.147 139.926 110.622 141.841L123.34 161.36C119.134 158.627 115.121 155.823 111.553 153.093L108.652 150.841C102.927 145.916 96.4916 141.883 89.5638 138.876L88.5126 138.482C87.2435 138.086 86.0271 137.537 84.8903 136.848C83.1263 135.417 81.6911 133.622 80.6825 131.587C81.9364 131.628 83.1858 131.418 84.3574 130.969L84.4908 131.107ZM33.5766 5.33569C33.8521 4.93063 34.2233 4.59977 34.6572 4.37242C35.0911 4.14506 35.5744 4.02822 36.0643 4.03225C36.3746 4.25657 36.6075 4.57186 36.7306 4.93444C37.2333 7.06754 36.9347 9.31101 35.8916 11.2384C34.057 15.6625 31.5805 19.792 28.5418 23.494C28.6915 22.1802 28.8088 20.8171 28.9225 19.5129C29.053 16.3978 29.5676 13.3106 30.4546 10.3215C31.1585 8.47102 32.2193 6.77697 33.5766 5.33569ZM20.3103 30.37C21.711 32.5845 22.9224 34.9132 23.9317 37.3314C24.4952 38.5699 25.0454 39.8313 25.6581 41.0373C29.3286 48.1908 33.6795 54.9741 38.6506 61.2934L37.5941 61.3835C31.143 62.012 24.7358 63.092 18.4391 64.2968C12.8737 57.0005 8.27551 49.015 4.75911 40.5389C9.62647 36.6885 14.8313 33.285 20.3103 30.37ZM5.38633 50.9465C8.00503 55.9389 11.0031 60.7228 14.354 65.2563C8.79947 66.4938 3.25365 67.9798 -2.12625 69.653C-2.42867 69.7562 -2.69964 69.9351 -2.91335 70.1726L-15.1459 64.9975C-8.92536 59.4899 -2.06197 54.7543 5.295 50.8938L5.38633 50.9465ZM172.865 189.253C169.69 192.169 164.139 193.348 160.905 190.567C160.582 190.29 160.177 190.126 159.752 190.101C159.327 190.075 158.905 190.189 158.551 190.426L157.81 190.972C157.114 191.561 156.213 191.851 155.305 191.778C154.348 191.495 153.472 190.989 152.748 190.302C152.058 189.649 151.28 189.098 150.437 188.663C150.189 188.545 149.919 188.481 149.644 188.475C149.37 188.469 149.097 188.52 148.844 188.627C148.586 188.734 148.353 188.896 148.162 189.1C147.97 189.304 147.824 189.547 147.734 189.812C147.668 190.018 147.558 190.207 147.413 190.367C147.267 190.527 147.089 190.653 146.89 190.738C146.69 190.822 146.476 190.863 146.259 190.857C146.043 190.85 145.831 190.798 145.637 190.702L135.964 187.948C131.957 186.822 127.612 185.226 123.39 183.733L120.247 182.587L120.405 182.313C121.201 180.7 121.424 178.864 121.036 177.107C120.294 175.901 119.169 174.979 117.841 174.488C116.513 173.998 115.058 173.966 113.711 174.4C113.211 174.648 112.775 175.007 112.435 175.449C112.096 175.891 111.861 176.405 111.75 176.952C111.658 177.111 111.579 177.248 111.5 177.385C108.995 178.983 104.481 177.047 100.957 174.556C101.238 173.978 101.341 173.33 101.253 172.694C101.165 172.058 100.89 171.463 100.463 170.983C99.1925 169.59 97.6028 168.526 95.8304 167.882C95.2825 167.566 94.7574 167.262 94.2779 166.986C93.6763 166.693 92.9975 166.599 92.3389 166.716C91.6804 166.834 91.076 167.157 90.6127 167.64L90.4545 167.914C86.5052 166.156 82.7036 164.083 79.0866 161.716L79.4161 161.145C79.58 160.928 79.6961 160.679 79.7567 160.414C79.8174 160.149 79.8213 159.874 79.7681 159.608C79.7149 159.341 79.6059 159.089 79.4482 158.868C79.2905 158.646 79.0877 158.461 78.8532 158.324L72.4606 154.633C72.0937 154.418 71.6657 154.33 71.2436 154.384C70.8216 154.437 70.4292 154.63 70.1279 154.93L68.8206 156.245C64.9074 154.237 61.1255 151.982 57.4976 149.495C57.5638 148.6 57.3763 147.704 56.9566 146.911C56.5369 146.118 55.902 145.459 55.1248 145.01C54.3477 144.562 53.4597 144.341 52.5629 144.374C51.6661 144.407 50.7968 144.693 50.0549 145.198L49.9494 145.38C46.5087 143.742 43.2031 141.833 40.0638 139.673C40.318 139.05 40.3612 138.36 40.187 137.71C40.0128 137.06 39.6306 136.484 39.0989 136.072C35.9888 133.886 32.7332 131.915 29.3547 130.172C29.0225 129.93 28.6455 129.756 28.2455 129.66C27.8456 129.564 27.4307 129.549 27.0247 129.614C26.6188 129.68 26.2299 129.826 25.8806 130.043C25.5312 130.26 25.2284 130.544 24.9895 130.878C23.0924 130.147 21.3209 129.124 19.7385 127.847L19.9494 127.481C20.1907 126.856 20.2272 126.171 20.0538 125.524C19.8804 124.876 19.506 124.301 18.9845 123.88L17.3635 122.944C16.4508 122.331 15.4973 121.78 14.5097 121.297L13.0942 120.479C12.7911 120.322 12.4513 120.247 12.1098 120.264C11.7684 120.281 11.4376 120.388 11.1515 120.575C10.7087 120.868 10.2133 121.251 9.70461 121.658L9.57281 121.886C7.65504 120.779 5.80672 119.499 3.98734 118.327C1.77019 116.894 -0.433764 115.439 -2.84062 114.019L-7.10993 111.554C-12.2643 108.761 -17.1008 105.418 -21.5348 101.582L-22.8098 100.785C-27.2972 96.642 -35.5328 89.0257 -35.0867 83.5604C-34.4198 82.88 -32.3431 81.3393 -30.9095 80.2797C-26.113 76.7172 -24.6002 75.5206 -24.7499 73.8817L-24.7714 69.9119C-24.0749 69.2278 -23.3383 68.5858 -22.5655 67.9892L-21.0913 66.6486L-2.54675 74.4938C2.33571 76.5821 8.24648 79.051 11.4989 83.699C11.9115 84.3025 12.2977 84.9516 12.6972 85.578C13.6034 87.3154 14.8187 88.8732 16.2834 90.1751C18.1944 91.5377 20.3796 92.4669 22.6868 92.898L24.6855 93.4431C32.0358 95.7386 37.1549 101.951 42.5471 108.535C47.9392 115.118 53.917 122.375 62.4924 124.921C63.7104 125.289 64.9943 125.543 66.2422 125.807C68.637 126.115 70.9418 126.917 73.0102 128.162C74.726 129.68 76.1247 131.522 77.1258 133.582C78.4325 136.204 80.3134 138.497 82.6286 140.291C84.0473 141.151 85.5707 141.826 87.1615 142.299L88.167 142.666C94.7211 145.555 100.811 149.399 106.238 154.074L109.191 156.235C126.137 169.063 161.373 189.072 169.155 187.507L169.529 187.388L170.22 187.087C172.261 186.252 174.257 185.312 176.2 184.269C175.447 186.144 174.311 187.841 172.865 189.253Z" fill="#111111"/>
</svg>
