<svg width="146" height="40" viewBox="0 0 146 40" fill="none" xmlns="http://www.w3.org/2000/svg">
<rect y="1.88391" width="146" height="35.7935" fill="#111111"/>
<path d="M14.9727 26.2637C13.88 26.2637 12.8439 26.1319 11.8643 25.8681C10.8847 25.6044 10.0872 25.2653 9.47177 24.8508L10.9412 22.0627C11.6068 22.4897 12.3164 22.8163 13.07 23.0423C13.8235 23.2558 14.5771 23.3626 15.3306 23.3626C16.0465 23.3626 16.5991 23.2621 16.9884 23.0612C17.3903 22.8477 17.5913 22.5588 17.5913 22.1946C17.5913 21.8806 17.4091 21.6357 17.0449 21.4599C16.6933 21.284 16.1407 21.0957 15.3871 20.8947C14.5331 20.6686 13.8235 20.4426 13.2583 20.2165C12.6932 19.9779 12.2034 19.62 11.7889 19.1427C11.387 18.6655 11.1861 18.0375 11.1861 17.2588C11.1861 16.3169 11.4436 15.4943 11.9585 14.791C12.4734 14.0751 13.2081 13.5225 14.1626 13.1332C15.1171 12.7438 16.2349 12.5492 17.5159 12.5492C18.4578 12.5492 19.337 12.6496 20.1533 12.8506C20.9697 13.039 21.673 13.3153 22.2633 13.6795L20.9069 16.4488C20.3919 16.1222 19.8205 15.8773 19.1925 15.7141C18.5771 15.5382 17.9429 15.4503 17.2898 15.4503C16.5488 15.4503 15.9648 15.5696 15.5378 15.8083C15.1234 16.0469 14.9162 16.3546 14.9162 16.7314C14.9162 17.0579 15.0983 17.3091 15.4625 17.4849C15.8267 17.6607 16.3919 17.8491 17.158 18.0501C18.012 18.2636 18.7153 18.4834 19.2679 18.7094C19.8331 18.9355 20.3166 19.2809 20.7185 19.7455C21.1204 20.2102 21.3213 20.8194 21.3213 21.5729C21.3213 22.5023 21.0576 23.3249 20.5301 24.0408C20.0152 24.7441 19.2742 25.2904 18.3071 25.6797C17.3526 26.0691 16.2411 26.2637 14.9727 26.2637ZM34.9127 15.7894L32.8781 26H29.4872L29.6944 25.0392C28.878 25.7928 27.8922 26.1695 26.7367 26.1695C25.9832 26.1695 25.2736 25.9874 24.6079 25.6232C23.9549 25.2465 23.4274 24.7064 23.0255 24.0031C22.6236 23.2998 22.4226 22.4709 22.4226 21.5164C22.4226 20.4112 22.6675 19.4127 23.1574 18.521C23.6597 17.6168 24.3316 16.9072 25.1731 16.3923C26.0271 15.8773 26.9565 15.6199 27.9612 15.6199C29.4432 15.6199 30.4856 16.0846 31.0885 17.0139L31.3334 15.7894H34.9127ZM27.9801 23.2872C28.6959 23.2872 29.2799 23.0235 29.7321 22.496C30.1842 21.9685 30.4103 21.284 30.4103 20.4426C30.4103 19.8397 30.2344 19.3625 29.8828 19.0108C29.5437 18.6592 29.0727 18.4834 28.4699 18.4834C27.754 18.4834 27.17 18.7471 26.7179 19.2746C26.2657 19.8021 26.0397 20.4928 26.0397 21.3468C26.0397 21.9497 26.2092 22.4269 26.5483 22.7786C26.9 23.1177 27.3772 23.2872 27.9801 23.2872ZM50.2721 15.6199C51.3522 15.6199 52.2188 15.9213 52.8719 16.5241C53.525 17.127 53.8515 17.981 53.8515 19.0862C53.8515 19.5006 53.8075 19.9214 53.7196 20.3484L52.6081 26H49.0288L50.0838 20.7252C50.134 20.4865 50.1591 20.2479 50.1591 20.0093C50.1591 19.5572 50.0461 19.2181 49.82 18.992C49.6065 18.7659 49.2925 18.6529 48.8781 18.6529C47.7352 18.6529 47.013 19.3876 46.7116 20.857L45.6755 26H42.0961L43.17 20.7252C43.2202 20.5117 43.2453 20.2793 43.2453 20.0281C43.2453 19.576 43.1323 19.2369 42.9062 19.0108C42.6927 18.7722 42.3787 18.6529 41.9643 18.6529C40.8088 18.6529 40.0804 19.4002 39.779 20.8947L38.7617 26H35.1823L37.2169 15.7894H40.6079L40.4007 16.8255C41.2421 16.0218 42.2594 15.6199 43.4525 15.6199C44.1307 15.6199 44.7398 15.7643 45.2799 16.0532C45.8199 16.3295 46.2344 16.7376 46.5232 17.2777C47.0005 16.7376 47.5531 16.3295 48.181 16.0532C48.8216 15.7643 49.5186 15.6199 50.2721 15.6199ZM58.8808 11.8521C59.4837 11.8521 59.9672 12.0342 60.3314 12.3985C60.7082 12.7501 60.8966 13.2211 60.8966 13.8114C60.8966 14.1128 60.8401 14.4016 60.727 14.6779C60.614 14.9542 60.4193 15.3059 60.143 15.7329L58.0896 18.879H55.8478L57.3737 15.7141C57.1226 15.5382 56.9279 15.3185 56.7897 15.0547C56.6516 14.7784 56.5825 14.4707 56.5825 14.1316C56.5825 13.4534 56.8023 12.9071 57.2419 12.4926C57.694 12.0656 58.2403 11.8521 58.8808 11.8521ZM63.81 26.1695C62.9308 26.1695 62.0831 26.0754 61.2667 25.887C60.463 25.6986 59.835 25.46 59.3829 25.1711L60.6827 22.6655C61.1474 22.9544 61.7 23.1868 62.3405 23.3626C62.9811 23.5258 63.609 23.6075 64.2244 23.6075C65.3171 23.6075 65.8634 23.3626 65.8634 22.8728C65.8634 22.6718 65.7315 22.5274 65.4678 22.4395C65.2166 22.339 64.8084 22.2448 64.2433 22.1569C63.4897 22.0188 62.868 21.8743 62.3782 21.7236C61.901 21.5603 61.4802 21.2903 61.116 20.9135C60.7518 20.5368 60.5697 20.0093 60.5697 19.3311C60.5697 18.1505 61.0721 17.24 62.0768 16.5995C63.0941 15.9464 64.4065 15.6199 66.0141 15.6199C66.7425 15.6199 67.4458 15.6952 68.124 15.8459C68.8022 15.9841 69.3925 16.1788 69.8949 16.4299L68.6327 18.9355C67.7787 18.4206 66.7676 18.1631 65.5996 18.1631C65.047 18.1631 64.6326 18.2385 64.3563 18.3892C64.0925 18.5273 63.9607 18.7094 63.9607 18.9355C63.9607 19.1364 64.0863 19.2871 64.3374 19.3876C64.6012 19.4755 65.0282 19.576 65.6185 19.689C66.3469 19.8146 66.9498 19.9591 67.427 20.1223C67.9168 20.2856 68.3375 20.5556 68.6892 20.9324C69.0534 21.3092 69.2355 21.8241 69.2355 22.4772C69.2355 23.6577 68.7269 24.5683 67.7096 25.2088C66.6923 25.8493 65.3924 26.1695 63.81 26.1695ZM80.6874 26.2637C79.5947 26.2637 78.5586 26.1319 77.579 25.8681C76.5994 25.6044 75.8019 25.2653 75.1865 24.8508L76.6559 22.0627C77.3215 22.4897 78.0311 22.8163 78.7847 23.0423C79.5382 23.2558 80.2918 23.3626 81.0453 23.3626C81.7612 23.3626 82.3138 23.2621 82.7031 23.0612C83.105 22.8477 83.306 22.5588 83.306 22.1946C83.306 21.8806 83.1239 21.6357 82.7596 21.4599C82.408 21.284 81.8554 21.0957 81.1018 20.8947C80.2478 20.6686 79.5382 20.4426 78.9731 20.2165C78.4079 19.9779 77.9181 19.62 77.5036 19.1427C77.1018 18.6655 76.9008 18.0375 76.9008 17.2588C76.9008 16.3169 77.1583 15.4943 77.6732 14.791C78.1881 14.0751 78.9228 13.5225 79.8773 13.1332C80.8318 12.7438 81.9496 12.5492 83.2306 12.5492C84.1725 12.5492 85.0517 12.6496 85.868 12.8506C86.6844 13.039 87.3877 13.3153 87.978 13.6795L86.6216 16.4488C86.1067 16.1222 85.5352 15.8773 84.9073 15.7141C84.2919 15.5382 83.6576 15.4503 83.0045 15.4503C82.2636 15.4503 81.6796 15.5696 81.2525 15.8083C80.8381 16.0469 80.6309 16.3546 80.6309 16.7314C80.6309 17.0579 80.813 17.3091 81.1772 17.4849C81.5414 17.6607 82.1066 17.8491 82.8727 18.0501C83.7267 18.2636 84.43 18.4834 84.9826 18.7094C85.5478 18.9355 86.0313 19.2809 86.4332 19.7455C86.8351 20.2102 87.036 20.8194 87.036 21.5729C87.036 22.5023 86.7723 23.3249 86.2448 24.0408C85.7299 24.7441 84.9889 25.2904 84.0218 25.6797C83.0673 26.0691 81.9559 26.2637 80.6874 26.2637ZM96.2192 15.6199C97.3244 15.6199 98.2161 15.9213 98.8943 16.5241C99.5725 17.127 99.9116 17.9935 99.9116 19.1239C99.9116 19.5383 99.8676 19.9465 99.7797 20.3484L98.6494 26H95.07L96.125 20.6875C96.1752 20.474 96.2003 20.2479 96.2003 20.0093C96.2003 19.105 95.7294 18.6529 94.7874 18.6529C94.1595 18.6529 93.6445 18.8476 93.2426 19.2369C92.8408 19.6137 92.5582 20.1851 92.3949 20.9512L91.3776 26H87.7983L90.5864 12.0217H94.1657L93.2426 16.6372C94.1092 15.959 95.1014 15.6199 96.2192 15.6199ZM106.733 26.1695C105.653 26.1695 104.711 25.9812 103.907 25.6044C103.103 25.2151 102.482 24.6687 102.042 23.9654C101.603 23.2621 101.383 22.4458 101.383 21.5164C101.383 20.3986 101.653 19.3939 102.193 18.5022C102.733 17.6105 103.48 16.9072 104.435 16.3923C105.389 15.8773 106.463 15.6199 107.656 15.6199C108.736 15.6199 109.678 15.8145 110.482 16.2039C111.286 16.5806 111.907 17.1207 112.347 17.824C112.787 18.5148 113.006 19.3248 113.006 20.2542C113.006 21.372 112.736 22.383 112.196 23.2872C111.656 24.1789 110.909 24.8822 109.954 25.3972C109.013 25.9121 107.939 26.1695 106.733 26.1695ZM106.94 23.2872C107.656 23.2872 108.24 23.0235 108.692 22.496C109.144 21.9685 109.37 21.284 109.37 20.4426C109.37 19.8397 109.201 19.3625 108.862 19.0108C108.523 18.6592 108.052 18.4834 107.449 18.4834C106.733 18.4834 106.149 18.7471 105.697 19.2746C105.245 19.8021 105.019 20.4928 105.019 21.3468C105.019 21.9497 105.188 22.4269 105.527 22.7786C105.866 23.1177 106.337 23.2872 106.94 23.2872ZM125.139 20.1035C125.139 20.5933 125.07 21.1522 124.932 21.7801H117.434C117.56 22.8853 118.332 23.4379 119.751 23.4379C120.203 23.4379 120.643 23.3689 121.07 23.2307C121.497 23.0926 121.88 22.8853 122.219 22.609L123.707 24.8508C122.514 25.73 121.064 26.1695 119.356 26.1695C118.276 26.1695 117.321 25.9812 116.492 25.6044C115.676 25.2151 115.042 24.675 114.59 23.9843C114.15 23.2809 113.93 22.4583 113.93 21.5164C113.93 20.3986 114.188 19.3939 114.703 18.5022C115.23 17.5979 115.959 16.8946 116.888 16.3923C117.83 15.8773 118.904 15.6199 120.109 15.6199C121.127 15.6199 122.012 15.8083 122.766 16.185C123.532 16.5492 124.116 17.0705 124.518 17.7486C124.932 18.4268 125.139 19.2118 125.139 20.1035ZM119.94 18.1631C119.362 18.1631 118.879 18.3201 118.489 18.6341C118.1 18.9355 117.817 19.3562 117.641 19.8963H121.842C121.855 19.3562 121.685 18.9355 121.334 18.6341C120.982 18.3201 120.517 18.1631 119.94 18.1631ZM129.598 26.1695C128.719 26.1695 127.871 26.0754 127.055 25.887C126.251 25.6986 125.623 25.46 125.171 25.1711L126.471 22.6655C126.936 22.9544 127.488 23.1868 128.129 23.3626C128.769 23.5258 129.397 23.6075 130.013 23.6075C131.105 23.6075 131.652 23.3626 131.652 22.8728C131.652 22.6718 131.52 22.5274 131.256 22.4395C131.005 22.339 130.597 22.2448 130.032 22.1569C129.278 22.0188 128.656 21.8743 128.167 21.7236C127.689 21.5603 127.269 21.2903 126.904 20.9135C126.54 20.5368 126.358 20.0093 126.358 19.3311C126.358 18.1505 126.86 17.24 127.865 16.5995C128.882 15.9464 130.195 15.6199 131.802 15.6199C132.531 15.6199 133.234 15.6952 133.912 15.8459C134.591 15.9841 135.181 16.1788 135.683 16.4299L134.421 18.9355C133.567 18.4206 132.556 18.1631 131.388 18.1631C130.835 18.1631 130.421 18.2385 130.145 18.3892C129.881 18.5273 129.749 18.7094 129.749 18.9355C129.749 19.1364 129.875 19.2871 130.126 19.3876C130.389 19.4755 130.817 19.576 131.407 19.689C132.135 19.8146 132.738 19.9591 133.215 20.1223C133.705 20.2856 134.126 20.5556 134.477 20.9324C134.842 21.3092 135.024 21.8241 135.024 22.4772C135.024 23.6577 134.515 24.5683 133.498 25.2088C132.481 25.8493 131.181 26.1695 129.598 26.1695Z" fill="white"/>
</svg>
