<svg width="205" height="240" viewBox="0 0 205 240" fill="none" xmlns="http://www.w3.org/2000/svg">
<path d="M1.50657 218.823L1.21508 217.804C1.21508 217.804 1.10262 217.609 1.03836 217.498C0.8838 217.181 0.776217 216.843 0.719058 216.495C0.719058 216.495 0.606604 216.3 0.558406 216.217C0.446195 215.678 0.529878 215.117 0.794458 214.634C1.97047 210.245 7.97984 203.881 19.9452 191.705C25.8048 185.725 31.8549 179.56 36.1798 174.392C43.1224 165.942 49.5751 157.1 55.506 147.912L60.7003 140.201C64.6439 134.436 68.7792 128.747 72.9145 123.057C77.0498 117.368 80.895 111.883 84.7991 106.179C90.0648 99.1107 94.4658 91.4381 97.9085 83.3244C100.805 74.4288 102.559 65.2007 103.126 55.8624L103.227 53.4668C102.556 47.2729 100.7 41.2658 97.7603 35.7725C95.9865 32.1219 94.7194 29.4773 95.6852 27.1017C95.9554 26.4776 96.358 25.9198 96.8652 25.4668C97.3725 25.0138 97.9721 24.6765 98.6226 24.4783C99.5855 24.1359 100.619 24.0421 101.628 24.2055C102.637 24.3689 103.588 24.7843 104.393 25.4131C108.668 28.5105 110.82 36.5433 110.747 40.8517L110.776 42.0592C111.874 41.6476 113.05 41.4884 114.218 41.5935C116.975 42.0912 119.495 43.4767 121.393 45.5389L135.426 58.2135C138.631 61.6879 142.732 64.2111 147.278 65.5057C150.649 65.8211 154.039 65.1526 157.038 63.5812C162.481 61.0862 167.232 57.2992 170.878 52.5496C174.524 47.7999 176.955 42.2314 177.959 36.3283C178.296 34.2784 178.955 30.1507 182.409 28.9357C179.559 24.9625 177.172 20.6771 175.294 16.1626C173.489 12.7041 173.107 8.67655 174.232 4.94072C174.515 4.1241 174.96 3.37293 175.539 2.73215C176.119 2.09137 176.822 1.57414 177.607 1.2114C179.09 0.736032 180.684 0.734994 182.168 1.20843C183.651 1.68186 184.951 2.60619 185.884 3.8527C187.943 6.04524 189.554 8.61822 190.628 11.4276C191.886 15.5059 192.604 19.7311 192.765 23.9957C192.939 27.7837 193.551 31.5388 194.588 35.1863L195.563 33.9186C196.013 33.2673 196.688 32.8052 197.458 32.6208C198.228 32.4365 199.039 32.5429 199.735 32.9197C207.683 36.9645 215.195 41.8148 222.153 47.3942C222.554 47.7135 222.839 48.1553 222.965 48.652C223.091 49.1488 223.051 49.6731 222.851 50.1449C221.656 53.0236 220.413 55.8189 219.122 58.5306C229.169 63.7137 238.507 70.1684 246.905 77.7357L248.731 76.9784C249.153 76.8007 249.617 76.7502 250.067 76.8332C250.517 76.9161 250.933 77.1289 251.264 77.4454C252.349 78.4887 253.277 79.3254 254.097 80.0391C255.464 81.1696 256.708 82.4411 257.808 83.8326C258.11 84.2363 258.275 84.7254 258.281 85.2293L258.181 90.5183C259.966 92.0144 261.828 93.4162 263.759 94.7179C269.093 98.6874 270.381 99.7617 270.631 101.287C272.186 110.406 260.946 120.754 254.262 126.914L253.008 128.083C247.35 132.992 241.172 137.267 234.585 140.834L230.049 143.453C227.267 145.059 224.581 146.833 221.895 148.606C219.208 150.38 216.506 152.125 213.573 153.856C213.203 154.099 212.768 154.225 212.325 154.215C211.882 154.206 211.453 154.062 211.094 153.803C210.554 153.447 209.934 152.951 209.314 152.456L209.122 152.122L208.593 152.427C207.514 152.955 206.473 153.557 205.476 154.227L204.308 154.901C204.523 155.553 204.596 156.243 204.522 156.925C204.449 157.607 204.231 158.266 203.883 158.857C202.684 160.293 201.208 161.473 199.543 162.327C198.091 163.168 196.582 163.903 195.025 164.527C194.225 164.933 193.314 165.066 192.431 164.906C191.548 164.746 190.742 164.301 190.135 163.64C186.521 165.52 183.018 167.605 179.642 169.884C179.873 170.214 180.034 170.588 180.116 170.982C180.197 171.377 180.197 171.784 180.116 172.178C180.034 172.573 179.873 172.946 179.642 173.276C179.411 173.606 179.115 173.885 178.772 174.097C174.273 177.23 169.516 179.976 164.553 182.306C163.875 182.594 163.135 182.705 162.403 182.628C161.671 182.551 160.97 182.289 160.367 181.866C160.133 181.625 159.824 181.473 159.491 181.435C159.158 181.397 158.822 181.476 158.54 181.659C158.318 181.788 158.197 182.414 158.114 182.462C158.967 184.455 159.615 185.899 140.304 196.083C139.861 196.319 139.354 196.407 138.857 196.333C138.36 196.259 137.9 196.028 137.545 195.673L136.027 194.138L132.048 196.435C132.193 196.685 132.338 196.936 132.482 197.186C132.66 197.451 132.783 197.75 132.841 198.063C132.9 198.377 132.894 198.7 132.824 199.011C132.754 199.323 132.621 199.617 132.433 199.875C132.245 200.133 132.006 200.35 131.732 200.513L129.554 201.882C124.696 205.196 119.483 207.957 114.012 210.113C113.304 210.239 112.577 210.195 111.889 209.986C111.201 209.778 110.572 209.409 110.053 208.911L108.495 209.811C107.119 210.294 105.846 211.03 104.739 211.979C105.228 212.793 105.377 213.766 105.152 214.688C104.926 215.611 104.346 216.406 103.537 216.903C99.9265 219.581 90.8256 225.28 84.4359 220.511C83.6697 219.806 83.1372 218.883 82.9097 217.867L82.749 217.589C81.9239 217.593 81.1117 217.795 80.3804 218.177C80.5062 219.288 80.7846 220.375 81.2078 221.41C81.5554 222.333 81.8197 223.285 81.9976 224.256C82.0759 224.791 81.9639 225.337 81.6813 225.798C81.3986 226.26 80.9632 226.608 80.4506 226.781L74.6294 228.844C69.4171 230.74 64.0657 232.717 59.1102 234.094L47.3207 237.45C46.1661 237.857 44.9192 237.925 43.7269 237.647C42.5346 237.37 41.4465 236.757 40.5905 235.882C39.1316 237.281 37.3559 238.306 35.415 238.87C35.1625 238.955 34.8969 238.995 34.6304 238.989C32.6563 239.176 30.6747 238.719 28.9815 237.687L28.5919 237.912C25.4958 239.374 22.0296 239.865 18.6493 239.32C15.2689 238.775 12.1324 237.22 9.65223 234.86C5.10158 230.512 3.22217 224.622 1.50657 218.823ZM40.7897 216.177C40.8152 215.95 40.8746 215.729 40.9661 215.519C41.839 211.608 43.1566 207.81 44.8929 204.199C45.6877 202.72 46.594 201.304 47.604 199.963C49.4218 197.392 52.4593 193.079 52.1 191.171C52.0942 191.043 52.0576 190.918 51.9933 190.806C51.929 190.695 51.8389 190.601 51.7305 190.531C49.9201 189.388 44.6035 192.902 40.7412 195.466C38.3584 197.073 35.8666 198.511 33.284 199.772L31.8649 200.591C25.5098 203.592 18.9438 206.678 12.6529 206.192C9.7691 208.879 7.38187 212.053 5.60089 215.569L5.87399 216.042C7.42088 219.749 12.6355 221.97 18.074 224.321L18.6649 224.573C21.3572 225.059 30.0734 221.585 40.8089 216.018L40.7897 216.177ZM101.5 29.0127C101.317 28.8388 101.09 28.7184 100.843 28.6647C100.596 28.611 100.339 28.626 100.1 28.7081L100.072 28.7241C100.529 30.3765 101.175 31.9704 101.998 33.474C103.55 36.556 104.873 39.7484 105.954 43.0251C106.002 42.1442 106.034 41.2354 106.07 40.3983C106.034 36.2209 104.466 32.2021 101.664 29.1036L101.5 29.0127ZM183.955 33.3485C183.049 34.4178 182.518 35.7539 182.442 37.1533C181.312 43.8295 178.567 50.1282 174.446 55.5012C170.325 60.8741 164.954 65.1584 158.799 67.9811C154.948 69.8993 150.618 70.6446 146.347 70.1248C140.848 68.7403 135.87 65.7885 132.017 61.6281L118.156 48.9289C117.021 47.601 115.522 46.6349 113.843 46.1504C112.906 46.1873 111.998 46.4832 111.218 47.0051C110.439 47.5271 109.82 48.2547 109.429 49.1072C108.431 51.3998 107.875 53.8606 107.791 56.3597C107.197 66.1086 105.351 75.7406 102.3 85.0186C98.7327 93.4945 94.1532 101.508 88.6609 108.883C84.5899 114.684 80.7329 120.213 76.7367 125.822C72.7406 131.431 68.5646 136.922 64.7451 142.837L59.5904 150.488C53.5788 159.807 47.0376 168.774 39.9989 177.344C35.6387 182.644 29.4377 188.933 23.4946 194.961L17.3258 201.305C21.6467 200.165 25.8272 198.548 29.7902 196.483L31.2093 195.664C33.5752 194.498 35.8618 193.178 38.0543 191.712C43.8279 187.896 49.7524 183.956 54.1645 186.714C54.8206 187.111 55.3865 187.64 55.8258 188.268C56.2651 188.896 56.5681 189.609 56.7154 190.362C57.482 194.26 54.1866 198.834 51.4584 202.783C50.6073 203.919 49.8324 205.11 49.1389 206.348C48.0756 208.603 47.1906 210.938 46.4919 213.331C52.1694 210.312 58.2953 206.85 64.2445 203.081C64.324 202.779 64.4637 202.497 64.6552 202.25L84.7538 171.131C86.1736 169.326 87.1104 167.189 87.476 164.922C87.6256 160.94 83.2669 157.632 80.4983 156.114C79.5841 155.649 78.6365 155.254 77.6635 154.931C74.2624 153.667 69.6077 151.902 68.3176 147.675C67.9707 145.821 68.0642 143.911 68.5905 142.099C69.1168 140.287 70.0612 138.624 71.3477 137.244L81.6618 122.979C89.8842 111.516 98.3558 99.6502 107.068 88.2015C109.547 84.3457 112.907 81.1344 116.87 78.8323C120.732 77.0595 124.92 76.1072 129.168 76.0357C141.519 75.9425 153.864 76.5569 166.144 77.8758C167.237 76.8161 168.575 76.0434 170.04 75.6267C176.946 67.1973 182.954 58.0708 187.968 48.3951C188.675 46.9852 189.322 45.5356 189.997 44.07C190.672 42.6044 191.244 41.3465 191.923 39.9526L191.318 39.226C189.86 37.2851 188.138 35.5571 186.202 34.0918C185.604 33.6107 184.854 33.3596 184.087 33.3838L183.955 33.3485ZM163.951 132.939C164.422 132.893 164.896 132.995 165.307 133.231L168.058 129.899C174.776 121.68 181.752 113.2 192.068 109.99L194.715 109.241C196.868 108.857 198.92 108.039 200.746 106.835C201.567 106.122 202.274 105.288 202.843 104.362C193.475 103.687 188.073 103.392 186.882 103.449C180.568 103.744 174.591 106.387 170.125 110.86C167.92 113.288 165.967 115.933 164.294 118.753L163.904 118.978C161.565 122.253 159.687 125.833 158.324 129.62C158.24 129.85 158.223 130.099 158.276 130.338C158.329 130.577 158.448 130.796 158.621 130.97C160.106 132.241 161.996 132.939 163.951 132.939ZM153.775 128.166C155.269 124.026 157.33 120.114 159.9 116.541L160.177 116.121C161.995 113.133 164.108 110.335 166.485 107.768C171.788 102.445 178.89 99.2973 186.396 98.9437C188.32 98.8714 197.122 99.4659 204.581 99.9827L204.921 101.085L205.629 99.9342C209.592 94.912 214.843 91.0595 220.823 88.7875C206.601 84.5224 192.005 81.6195 177.233 80.118C175.877 79.7752 174.465 79.719 173.086 79.9529C171.707 80.1869 170.392 80.7059 169.225 81.4768C167.948 82.9929 150.634 108.46 141.306 122.12L133.027 134.32L127.452 142.399C125.559 145.161 123.678 147.879 121.889 150.693C121.287 151.476 120.874 152.388 120.682 153.356C120.742 153.921 120.95 154.46 121.286 154.917C121.622 155.375 122.074 155.736 122.594 155.962C124.142 156.564 125.826 156.722 127.458 156.419C127.706 156.397 127.955 156.417 128.196 156.475C129.17 155.155 130.331 153.985 131.644 153.001C134.691 151.026 138.141 149.757 141.742 149.285C143.163 148.984 144.557 148.699 145.93 148.314C152.049 146.166 157.459 142.375 161.567 137.357C159.044 136.882 156.739 135.613 154.987 133.736C154.337 132.982 153.886 132.077 153.674 131.104C153.462 130.132 153.497 129.122 153.775 128.166ZM129.477 131.063L137.36 119.463L146.594 105.896C135.611 106.152 125.106 112.44 116.672 117.495C114.344 118.705 112.247 120.317 110.48 122.257C109.966 122.765 109.671 123.454 109.66 124.177C110.001 124.628 110.429 125.007 110.918 125.292C111.407 125.576 111.948 125.761 112.509 125.834C118.077 127.703 123.835 129.387 129.445 131.008L129.477 131.063ZM120.49 160.479C119.096 159.868 117.913 158.86 117.089 157.581C116.265 156.302 115.835 154.808 115.855 153.286C116.08 151.532 116.753 149.865 117.81 148.447C119.611 145.59 121.543 142.768 123.464 139.989L126.695 135.304C121.412 133.865 116.092 132.299 110.852 130.612C109.526 130.35 108.287 129.759 107.249 128.893C106.211 128.027 105.408 126.915 104.912 125.657C104.695 124.592 104.734 123.491 105.027 122.445C105.319 121.399 105.857 120.437 106.595 119.64C108.702 117.251 111.227 115.265 114.045 113.78C122.952 108.452 134.026 101.799 146.259 101.525C147.381 101.497 148.503 101.57 149.612 101.742C155.614 92.8596 160.081 86.4592 162.69 82.6895C151.536 81.5543 140.327 81.04 129.115 81.1491C125.527 81.1794 121.984 81.9608 118.716 83.4431C115.432 85.4084 112.647 88.1081 110.581 91.3303C101.908 102.719 93.4208 114.557 85.2262 126.004L74.9121 140.269C74.1058 141.102 73.4824 142.093 73.0816 143.181C72.6809 144.268 72.5117 145.428 72.5849 146.584C73.1797 148.578 76.4491 149.807 79.0559 150.788C80.3031 151.226 81.5107 151.77 82.6658 152.414C88.9674 156.196 92.1555 160.625 92.034 165.555C91.6081 168.47 90.4402 171.227 88.6423 173.561L73.142 197.35C78.2682 194.02 83.1588 190.603 87.5079 187.275L91.0425 184.53C98.0208 178.528 105.864 173.612 114.307 169.948L115.589 169.468C117.135 168.985 118.618 168.316 120.003 167.475C122.153 165.731 123.902 163.545 125.132 161.064C123.603 161.114 122.081 160.858 120.653 160.311L120.49 160.479ZM182.543 7.19131C182.208 6.69764 181.755 6.29439 181.226 6.01729C180.698 5.74019 180.108 5.5978 179.511 5.6027C179.133 5.8761 178.849 6.26037 178.699 6.70228C178.087 9.30206 178.451 12.0363 179.722 14.3854C181.958 19.7774 184.976 24.8104 188.68 29.3223C188.497 27.721 188.354 26.0598 188.216 24.4703C188.057 20.6735 187.43 16.911 186.349 13.2679C185.491 11.0126 184.198 8.94791 182.543 7.19131ZM198.712 37.7026C197.005 40.4016 195.529 43.2398 194.298 46.187C193.612 47.6965 192.941 49.2338 192.194 50.7037C187.721 59.4222 182.418 67.6896 176.359 75.3914L177.647 75.5012C185.509 76.2673 193.318 77.5836 200.993 79.0519C207.776 70.1594 213.38 60.4267 217.666 50.0962C211.733 45.4034 205.39 41.2554 198.712 37.7026ZM216.901 62.7809C213.71 68.8654 210.056 74.6961 205.972 80.2214C212.741 81.7296 219.5 83.5407 226.057 85.5799C226.426 85.7057 226.756 85.9237 227.017 86.2133L241.925 79.906C234.344 73.1934 225.979 67.4217 217.012 62.7166L216.901 62.7809ZM12.781 231.347C16.6506 234.9 23.416 236.337 27.3583 232.948C27.7522 232.61 28.2457 232.41 28.7636 232.379C29.2816 232.348 29.7955 232.487 30.2269 232.775L31.1306 233.441C31.9787 234.159 33.0762 234.512 34.1837 234.424C35.3499 234.078 36.4177 233.462 37.3001 232.624C38.1402 231.829 39.0885 231.157 40.1168 230.627C40.4189 230.484 40.7479 230.406 41.0824 230.398C41.4168 230.39 41.749 230.453 42.0574 230.583C42.3725 230.714 42.656 230.911 42.8894 231.16C43.1227 231.409 43.3005 231.704 43.4109 232.027C43.4911 232.278 43.6246 232.509 43.8022 232.704C43.9798 232.899 44.1973 233.053 44.4399 233.156C44.6825 233.259 44.9444 233.308 45.2079 233.3C45.4713 233.293 45.73 233.229 45.9663 233.112L57.7557 229.756C62.6396 228.383 67.9353 226.438 73.0802 224.618L76.9118 223.222L76.719 222.888C75.7483 220.922 75.4769 218.684 75.9495 216.543C76.8538 215.073 78.2251 213.95 79.8437 213.351C81.4624 212.753 83.2349 212.715 84.8777 213.243C85.4863 213.546 86.0179 213.983 86.4319 214.522C86.8459 215.061 87.1314 215.687 87.2668 216.353C87.3793 216.548 87.4757 216.715 87.5721 216.882C90.6255 218.829 96.1266 216.469 100.421 213.433C100.079 212.729 99.9537 211.94 100.061 211.165C100.168 210.389 100.503 209.663 101.023 209.079C102.572 207.381 104.51 206.084 106.67 205.299C107.338 204.914 107.978 204.544 108.562 204.207C109.295 203.851 110.122 203.736 110.925 203.879C111.728 204.022 112.464 204.416 113.029 205.004L113.222 205.338C118.035 203.195 122.668 200.669 127.077 197.784L126.675 197.088C126.475 196.824 126.334 196.521 126.26 196.198C126.186 195.875 126.181 195.54 126.246 195.215C126.311 194.89 126.444 194.583 126.636 194.313C126.828 194.043 127.075 193.817 127.361 193.65L135.152 189.152C135.6 188.889 136.121 188.783 136.636 188.848C137.15 188.914 137.628 189.148 137.995 189.514L139.589 191.117C144.358 188.669 148.967 185.921 153.389 182.889C153.308 181.799 153.537 180.707 154.048 179.741C154.56 178.774 155.334 177.971 156.281 177.424C157.228 176.877 158.31 176.608 159.403 176.649C160.496 176.689 161.556 177.037 162.46 177.652L162.589 177.875C166.782 175.878 170.811 173.552 174.637 170.919C174.327 170.159 174.274 169.319 174.487 168.526C174.699 167.734 175.165 167.033 175.813 166.53C179.603 163.865 183.571 161.463 187.689 159.339C188.094 159.044 188.553 158.832 189.041 158.715C189.528 158.599 190.034 158.58 190.529 158.66C191.023 158.74 191.497 158.917 191.923 159.182C192.349 159.446 192.718 159.792 193.009 160.2C195.321 159.308 197.48 158.062 199.409 156.505L199.152 156.06C198.858 155.298 198.813 154.463 199.025 153.674C199.236 152.885 199.692 152.184 200.328 151.671L202.304 150.53C203.416 149.783 204.578 149.112 205.782 148.522L207.507 147.526C207.876 147.334 208.291 147.243 208.707 147.264C209.123 147.284 209.526 147.415 209.875 147.643C210.414 148 211.018 148.467 211.638 148.963L211.799 149.241C214.136 147.891 216.389 146.331 218.606 144.902C221.308 143.157 223.995 141.383 226.928 139.653L232.131 136.648C238.413 133.244 244.308 129.169 249.712 124.495L251.266 123.523C256.735 118.474 266.773 109.191 266.229 102.53C265.416 101.701 262.885 99.8229 261.138 98.5315C255.292 94.1896 253.448 92.7312 253.631 90.7338L253.657 85.8955C252.808 85.0618 251.91 84.2793 250.968 83.5522L249.172 81.9182L226.57 91.4799C220.619 94.025 213.415 97.0341 209.451 102.699C208.948 103.434 208.478 104.226 207.991 104.989C206.886 107.107 205.405 109.005 203.62 110.592C201.291 112.253 198.628 113.385 195.816 113.91L193.38 114.575C184.421 117.373 178.182 124.944 171.61 132.968C165.039 140.992 157.753 149.836 147.301 152.939C145.817 153.388 144.252 153.698 142.731 154.02C139.812 154.395 137.003 155.372 134.482 156.89C132.391 158.74 130.687 160.985 129.467 163.496C127.874 166.691 125.582 169.485 122.76 171.672C121.031 172.721 119.174 173.543 117.235 174.119L116.01 174.567C108.022 178.088 100.6 182.773 93.9853 188.47L90.3864 191.105C69.7326 206.739 26.7882 231.125 17.3027 229.218L16.8478 229.073L16.0052 228.706C13.5176 227.689 11.0848 226.542 8.71678 225.271C9.63497 227.557 11.0191 229.626 12.781 231.347Z" fill="#111111"/>
</svg>
