<svg width="24" height="24" viewBox="0 0 24 24" fill="none" xmlns="http://www.w3.org/2000/svg">
<path d="M22.8209 21.2893L18.5034 17.0166C21.7801 12.9363 21.4717 6.93143 17.7324 3.19762C15.7664 1.23448 13.1837 0.156677 10.4082 0.156677C7.63266 0.156677 5.01134 1.23448 3.04535 3.19762C1.07937 5.16076 0 7.73978 0 10.5498C0 13.3597 1.07937 15.9388 3.04535 17.9019C5.01134 19.8266 7.59411 20.9429 10.4082 20.9429C12.7596 20.9429 15.0726 20.1345 16.8844 18.6718L21.1633 22.9445C21.3946 23.1754 21.6644 23.2909 21.9728 23.2909C22.2812 23.2909 22.5896 23.1754 22.7823 22.9445C23.2449 22.4826 23.2449 21.7512 22.8209 21.2893ZM18.5034 10.5498C18.5034 12.7054 17.6553 14.7455 16.1134 16.2467C14.5714 17.7479 12.5669 18.6333 10.4082 18.6333C8.24944 18.6333 6.20635 17.7864 4.70295 16.2467C3.19955 14.707 2.31293 12.7054 2.31293 10.5498C2.31293 8.39416 3.161 6.35404 4.70295 4.85281C6.2449 3.35159 8.21089 2.46625 10.4082 2.46625C12.5669 2.46625 14.61 3.3131 16.1134 4.85281C17.6168 6.39253 18.5034 8.35567 18.5034 10.5498Z" fill="#111111"/>
</svg>
