<svg width="182" height="105" viewBox="0 0 182 105" fill="none" xmlns="http://www.w3.org/2000/svg">
<path d="M180.244 73.987L180.085 73.3524C180.085 73.3524 180.085 73.2135 180.085 73.1342C180.07 72.9171 180.023 72.7033 179.946 72.4996C179.946 72.4996 179.946 72.3608 179.946 72.3013C179.84 71.9785 179.622 71.7043 179.332 71.5279C177.348 69.5447 172.172 67.9978 162.019 65.1818C157.041 63.7936 151.905 62.3657 147.998 60.9378C141.679 58.5634 135.501 55.8288 129.495 52.7474L124.339 50.2288C120.452 48.3646 116.486 46.5996 112.52 44.8346C108.553 43.0696 104.805 41.3244 100.958 39.4801C95.9622 37.3271 91.2418 34.584 86.8977 31.3095C82.6039 27.4485 78.8188 23.0569 75.6334 18.2405L74.8402 16.9911C73.2877 13.473 72.4259 9.68924 72.3018 5.84579C72.1233 3.34701 71.9845 1.54234 70.7351 0.570598C70.3981 0.320399 70.0107 0.146468 69.5998 0.0608591C69.1888 -0.0247496 68.7642 -0.019988 68.3553 0.0748092C67.735 0.188966 67.1535 0.457827 66.6647 0.856488C66.1759 1.25515 65.7956 1.77072 65.5591 2.35544C64.2304 5.33017 65.5591 10.2881 66.9275 12.5687L67.2844 13.2231C66.5707 13.3418 65.8929 13.6197 65.3013 14.0362C63.9807 15.1534 63.0614 16.6715 62.6836 18.3595L59.0941 29.4652C58.453 32.3115 57.0394 34.9259 55.0088 37.021C53.3044 38.2298 51.2861 38.9187 49.1982 39.0041C45.5187 39.3503 41.8103 38.7923 38.3955 37.3787C34.9808 35.9651 31.9631 33.7387 29.6048 30.893C28.7918 29.9014 27.1656 27.8985 24.9445 28.3149C25.2416 25.3117 25.1951 22.2843 24.8057 19.2916C24.7035 16.8857 23.6644 14.6151 21.9103 12.9653C21.5071 12.6161 21.0376 12.3518 20.5298 12.1882C20.0221 12.0247 19.4866 11.9652 18.9554 12.0134C18.016 12.217 17.1634 12.7084 16.5165 13.4194C15.8696 14.1303 15.4604 15.0253 15.3461 15.9797C14.9222 17.7871 14.8549 19.6597 15.1478 21.4929C15.7344 24.0608 16.6545 26.541 17.8845 28.8702C18.9603 30.9488 19.7921 33.1449 20.3634 35.4146L19.4512 35.0378C19.0096 34.8286 18.5063 34.7898 18.0378 34.9289C17.5693 35.068 17.1687 35.3751 16.9128 35.7914C13.9124 40.4065 11.3939 45.3174 9.39669 50.4469C9.28098 50.7413 9.26486 51.0655 9.35081 51.3699C9.43677 51.6743 9.62005 51.9422 9.87264 52.1326C11.3997 53.3027 12.9267 54.4132 14.4537 55.4643C10.6829 61.3354 7.68357 67.6674 5.52958 74.3043L4.31986 74.4629C4.03961 74.4981 3.77575 74.6144 3.56081 74.7977C3.34586 74.9809 3.18921 75.223 3.11015 75.4942C2.85234 76.3866 2.61437 77.1204 2.39622 77.755C2.01437 78.7811 1.74183 79.8447 1.58314 80.928C1.54656 81.2369 1.60906 81.5494 1.76162 81.8204L3.44728 84.6167C2.95492 85.9673 2.39227 87.2912 1.76162 88.583C0.135446 92.351 -0.221518 93.3227 0.115615 94.2151C2.09875 99.5696 11.3005 101.632 16.774 102.862L17.8052 103.1C22.3446 103.977 26.9663 104.356 31.588 104.23H34.8205C36.8036 104.23 38.7868 104.349 40.7699 104.468C42.753 104.587 44.7362 104.686 46.8383 104.706C47.1111 104.722 47.3824 104.655 47.6162 104.513C47.8499 104.371 48.0351 104.162 48.1472 103.913C48.3256 103.556 48.5041 103.1 48.6826 102.644V102.406H49.0594C49.7989 102.355 50.541 102.355 51.2805 102.406H52.1134C52.1997 102.82 52.3735 103.211 52.6231 103.553C52.8728 103.895 53.1926 104.18 53.5611 104.389C54.6455 104.786 55.7988 104.962 56.9523 104.904C57.9874 104.906 59.0213 104.833 60.046 104.686C60.599 104.656 61.127 104.446 61.5494 104.088C61.9719 103.73 62.2658 103.244 62.3861 102.703C64.8979 102.592 67.414 102.625 69.922 102.802C69.9003 103.05 69.9294 103.299 70.0076 103.535C70.0858 103.771 70.2113 103.989 70.3766 104.175C70.5419 104.36 70.7434 104.51 70.9687 104.615C71.1941 104.72 71.4385 104.778 71.687 104.785C75.0589 105.072 78.4489 105.072 81.8208 104.785C82.272 104.73 82.7018 104.561 83.0695 104.294C83.4373 104.027 83.731 103.67 83.9229 103.258C83.9732 103.058 84.0917 102.881 84.2581 102.758C84.4246 102.635 84.6285 102.573 84.8352 102.584C84.9938 102.584 85.2516 102.882 85.3111 102.882C85.4698 104.21 85.5689 105.182 99.0344 104.666C99.3443 104.656 99.6425 104.546 99.8852 104.353C100.128 104.16 100.302 103.895 100.383 103.595L100.72 102.306H103.556C103.556 102.485 103.556 102.663 103.556 102.842C103.542 103.038 103.569 103.236 103.635 103.422C103.7 103.608 103.803 103.778 103.937 103.923C104.07 104.068 104.232 104.184 104.412 104.264C104.592 104.344 104.787 104.386 104.984 104.389L106.57 104.448C110.19 104.721 113.828 104.588 117.418 104.052C117.835 103.9 118.211 103.653 118.514 103.329C118.817 103.005 119.04 102.614 119.163 102.187H120.274C121.159 102.021 122.066 102.021 122.951 102.187C122.94 102.773 123.162 103.339 123.566 103.763C123.971 104.186 124.527 104.433 125.113 104.448C127.869 104.766 134.493 105.004 136.436 100.482C136.628 99.8686 136.628 99.2112 136.436 98.5979V98.3996C136.879 98.1473 137.375 98.0045 137.884 97.9831C138.16 98.6155 138.346 99.2828 138.439 99.9663C138.538 100.567 138.691 101.158 138.895 101.731C139.019 102.042 139.247 102.299 139.541 102.458C139.834 102.618 140.174 102.669 140.502 102.604L144.25 101.91C147.621 101.315 151.092 100.72 154.166 99.9266L161.503 98.0823C162.246 97.9434 162.934 97.5953 163.485 97.0788C164.037 96.5624 164.429 95.8991 164.617 95.1671C165.828 95.4645 167.094 95.4645 168.305 95.1671C168.467 95.1347 168.621 95.0743 168.761 94.9886C169.874 94.4792 170.793 93.6235 171.379 92.5493H171.657C173.763 92.3753 175.767 91.568 177.406 90.2336C179.045 88.8991 180.242 87.1 180.839 85.0728C181.93 81.3445 181.116 77.6161 180.244 73.987ZM158.429 84.696C158.346 84.5825 158.245 84.4822 158.132 84.3985C156.458 82.5776 154.582 80.954 152.539 79.5596C151.658 79.0144 150.737 78.537 149.783 78.1318C148.018 77.3187 145.063 75.9503 144.666 74.8199C144.63 74.7494 144.611 74.6712 144.611 74.5918C144.611 74.5125 144.63 74.4342 144.666 74.3638C145.281 73.1937 149.208 73.4317 152.063 73.6102C153.833 73.7335 155.609 73.7335 157.378 73.6102H158.39C162.713 73.2532 167.175 72.8764 170.388 70.6751C172.758 71.2212 175.014 72.1812 177.051 73.511V73.8481C177.368 76.3073 175.266 79.1035 173.085 82.0386L172.847 82.3559C171.558 83.4466 165.826 84.2795 158.37 84.6167L158.429 84.696ZM68.2165 3.38668C68.2608 3.23715 68.3452 3.10262 68.4606 2.99773C68.5759 2.89283 68.7179 2.82158 68.8709 2.79173H68.8908C69.1567 3.81584 69.3031 4.86731 69.3271 5.92511C69.4486 8.0515 69.727 10.166 70.16 12.2514C69.8625 11.7952 69.565 11.3193 69.2874 10.883C68.0177 8.63882 67.6155 6.00679 68.157 3.48583L68.2165 3.38668ZM25.4799 31.1508C26.2941 31.4429 26.9905 31.993 27.4631 32.7175C30.1275 35.9374 33.5387 38.4571 37.3994 40.0575C41.2602 41.6578 45.4537 42.2902 49.6147 41.8995C52.2654 41.7362 54.8098 40.7984 56.9325 39.2024C59.4443 36.7654 61.1942 33.6514 61.9696 30.2386L65.4599 19.1726C65.6568 18.1125 66.1601 17.1334 66.9076 16.3565C67.42 16.0871 67.9969 15.9648 68.5745 16.0033C69.1521 16.0418 69.7078 16.2396 70.1798 16.5747C71.421 17.492 72.4774 18.6359 73.2933 19.946C76.6196 24.9737 80.5787 29.5527 85.0732 33.5703C89.5957 37.0001 94.5165 39.8701 99.7285 42.1177C103.695 43.962 107.463 45.727 111.33 47.492C115.197 49.257 119.124 50.903 122.991 52.8862L128.107 55.385C134.197 58.5113 140.46 61.2856 146.868 63.6944C150.834 65.1818 156.089 66.6295 161.126 68.0177L166.382 69.505C163.72 70.2293 160.987 70.655 158.231 70.7743H157.22C155.595 70.8813 153.966 70.8813 152.341 70.7743C148.077 70.5164 143.695 70.2388 142.187 73.0747C141.959 73.4891 141.82 73.9466 141.779 74.4179C141.738 74.8892 141.796 75.3639 141.949 75.8115C142.743 78.1318 145.916 79.5596 148.593 80.8288C149.398 81.1734 150.18 81.5709 150.933 82.0187C152.197 82.8958 153.391 83.8705 154.503 84.934C150.536 85.0728 146.193 85.1125 141.85 84.934C141.715 84.7972 141.553 84.6893 141.374 84.6167L121.027 74.1853C119.711 73.6586 118.551 72.8055 117.656 71.7063C116.347 69.624 117.656 66.5105 118.667 64.8446C119.013 64.3143 119.397 63.8105 119.818 63.3374C121.246 61.6121 123.189 59.2323 122.574 56.5749C122.187 55.4765 121.548 54.4844 120.707 53.6784C119.867 52.8723 118.849 52.2749 117.735 51.9343L107.82 47.492C99.8872 43.9025 91.6968 40.1742 83.5065 36.7433C80.9917 35.4472 78.2048 34.7675 75.3756 34.7602C72.7643 35.0043 70.232 35.7877 67.9389 37.0606C61.3085 40.8222 54.8991 44.9606 48.7421 49.4553C47.8308 49.2262 46.877 49.2262 45.9657 49.4553C39.6727 47.0809 33.6444 44.0568 27.9787 40.432C27.1656 39.8965 26.3723 39.3214 25.5592 38.7463C24.7462 38.1712 24.0521 37.6754 23.2588 37.14L23.358 36.5648C23.5386 35.0773 23.9257 33.6222 24.5082 32.2416C24.6794 31.7999 25.003 31.4341 25.4204 31.2103L25.4799 31.1508ZM66.9076 78.2111C66.6415 78.3322 66.4197 78.5333 66.273 78.7862L63.7743 77.8541C57.6464 75.5338 51.3004 73.154 44.7957 74.6216L43.1497 75.038C41.8805 75.4977 40.5308 75.6934 39.1834 75.6132C38.5247 75.4857 37.8894 75.2583 37.2994 74.9389C42.0986 71.6865 44.8948 69.862 45.5493 69.5249C49.0155 67.7338 53.0258 67.3024 56.7936 68.3151C58.7213 68.9326 60.5817 69.7432 62.3464 70.7346H62.6241C64.885 71.7629 66.9937 73.0975 68.8908 74.7009C69.0067 74.7978 69.0926 74.9258 69.1383 75.0698C69.1839 75.2139 69.1875 75.368 69.1486 75.514C68.7472 76.6515 67.9524 77.6081 66.9076 78.2111ZM70.8739 72.5194C68.7978 70.7678 66.4885 69.3128 64.0123 68.1962L63.7346 68.0573C61.8406 67.0211 59.8475 66.1774 57.7852 65.5387C53.3077 64.33 48.54 64.8393 44.4189 66.9666C43.3678 67.5219 38.8463 70.5561 35.0188 73.1342L35.1775 73.8283L34.4437 73.4317C30.7757 71.97 26.7798 71.5314 22.882 72.1625C29.168 65.4935 36.074 59.4374 43.5066 54.0761C44.1256 53.4744 44.8633 53.0084 45.6726 52.7079C46.4819 52.4074 47.345 52.279 48.2067 52.3309C49.3569 52.7474 66.4713 61.0171 75.6731 65.4396L83.8634 69.4059L89.3369 72.0038C91.2011 72.8962 93.0454 73.7688 94.8699 74.7207C95.4333 74.9536 95.9355 75.3133 96.3374 75.7718C96.4795 76.0922 96.5342 76.4445 96.4958 76.7928C96.4575 77.1412 96.3276 77.4732 96.1192 77.755C95.4776 78.5539 94.6261 79.1582 93.6601 79.5001C93.5214 79.565 93.3941 79.6521 93.2833 79.7579C92.3554 79.3529 91.3733 79.0857 90.3681 78.9647C88.1297 78.8495 85.8939 79.2357 83.8238 80.0951C82.971 80.3727 82.1381 80.6504 81.2854 80.8685C77.3515 81.6084 73.2899 81.2516 69.5452 79.8373C70.7472 78.8046 71.588 77.415 71.9448 75.871C72.0596 75.2673 72.0217 74.6446 71.8347 74.0593C71.6477 73.474 71.3174 72.9447 70.8739 72.5194ZM84.7559 66.57L76.9621 62.802L67.8397 58.3994C73.7891 55.147 81.3449 55.266 87.4133 55.3651C89.0313 55.2934 90.6493 55.5082 92.1926 55.9998C92.6243 56.1127 92.9945 56.3904 93.2239 56.7732C93.1805 57.1197 93.0688 57.4541 92.8951 57.7571C92.7215 58.0601 92.4895 58.3256 92.2124 58.5382C89.8129 61.2551 87.2546 63.9324 84.7559 66.5303V66.57ZM98.6378 79.52C99.1944 78.7633 99.5157 77.8594 99.5616 76.9212C99.6074 75.983 99.3758 75.0521 98.8956 74.2448C98.2341 73.3764 97.3598 72.6933 96.3572 72.2616C94.5129 71.2899 92.6091 70.3776 90.7251 69.4852L87.5521 67.978C89.9318 65.5784 92.2918 63.0995 94.5724 60.5808C95.2004 60.0316 95.6802 59.3333 95.9678 58.5501C96.2554 57.767 96.3416 56.9241 96.2184 56.0989C96.006 55.4628 95.6452 54.8864 95.1659 54.4174C94.6865 53.9484 94.1024 53.6003 93.4618 53.4018C91.5981 52.7751 89.6359 52.4929 87.6711 52.5689C81.2655 52.4697 73.2933 52.3309 66.6697 55.9601C66.0614 56.2912 65.4839 56.6762 64.9443 57.1103C58.9949 54.2149 54.632 52.1723 52.0738 50.9625C57.6858 46.9133 63.5186 43.1793 69.5452 39.7776C71.4728 38.6863 73.6075 38.0107 75.8119 37.7944C78.1741 37.8313 80.4956 38.4151 82.5942 39.4999C90.7449 42.9109 98.9353 46.6194 106.848 50.209L116.764 54.6512C117.452 54.8474 118.091 55.1851 118.641 55.6427C119.191 56.1004 119.639 56.6678 119.957 57.3086C120.254 58.558 118.886 60.2239 117.795 61.5526C117.264 62.172 116.786 62.8354 116.367 63.5357C114.166 67.5021 113.829 70.8536 115.415 73.4515C116.542 74.8783 118.017 75.9914 119.699 76.6841L135.326 84.6167C131.558 84.4184 127.889 84.1011 124.538 83.6648L121.801 83.288C116.218 82.2333 110.509 82.0261 104.865 82.6732L104.032 82.812C103.056 83.0312 102.057 83.1311 101.057 83.1095C99.3698 82.8407 97.76 82.2117 96.3374 81.2651C97.1697 80.8202 97.9046 80.2134 98.499 79.4803L98.6378 79.52ZM18.1622 16.7333C18.1893 16.3658 18.3066 16.0106 18.5038 15.6993C18.701 15.388 18.9719 15.1301 19.2925 14.9485C19.5791 14.9779 19.8494 15.0957 20.066 15.2856C21.1958 16.4862 21.8451 18.0601 21.8904 19.708C22.3593 23.2802 22.2992 26.9021 21.712 30.4567C21.3153 29.5445 20.879 28.6124 20.4626 27.72C19.3759 25.6414 18.5499 23.4367 18.0035 21.1557C17.7661 19.6854 17.82 18.1828 18.1622 16.7333ZM18.9356 38.0324C20.681 38.9483 22.3462 40.0097 23.9132 41.2054C24.7462 41.8004 25.5791 42.4151 26.4318 42.9704C31.5137 46.2502 36.8997 49.0328 42.5151 51.2798L41.8606 51.736C37.8944 54.5719 34.1264 57.6854 30.4774 60.8386C24.1074 58.1787 18.1082 54.7058 12.6292 50.5064C14.3519 46.1672 16.4626 41.9923 18.9356 38.0324ZM16.9524 57.0508C20.5362 59.3182 24.2888 61.3072 28.177 63.0003C25.0238 65.8957 21.9698 68.9498 19.0942 72.0633C18.936 72.2443 18.8268 72.4628 18.7769 72.6979L8.86124 73.9275C10.8421 67.9997 13.5323 62.333 16.8731 57.0508H16.9524ZM178.082 84.1606C177.11 87.2543 173.937 90.11 170.784 89.5151C170.47 89.4561 170.144 89.5016 169.858 89.6449C169.571 89.7881 169.339 90.0211 169.198 90.3083L168.92 90.9429C168.688 91.5883 168.211 92.1158 167.591 92.4105C166.861 92.5856 166.1 92.5856 165.37 92.4105C164.676 92.2447 163.962 92.1779 163.248 92.2122C163.043 92.2287 162.843 92.2885 162.661 92.3876C162.48 92.4867 162.322 92.6229 162.197 92.7873C162.069 92.9546 161.979 93.1473 161.931 93.3524C161.883 93.5575 161.879 93.7705 161.92 93.9772C161.954 94.1361 161.954 94.3007 161.919 94.4595C161.884 94.6184 161.816 94.768 161.718 94.8979C161.62 95.0278 161.495 95.135 161.352 95.2123C161.209 95.2895 161.051 95.335 160.888 95.3455L153.551 97.1899C150.517 97.9633 147.086 98.5582 143.774 99.173L141.295 99.6093V99.3713C141.207 98.0209 140.662 96.7408 139.748 95.7422C138.811 95.2357 137.731 95.0581 136.682 95.2378C135.632 95.4176 134.673 95.9443 133.957 96.7337C133.725 97.0832 133.576 97.481 133.521 97.8969C133.466 98.3127 133.507 98.7356 133.64 99.1334C133.64 99.2722 133.64 99.3912 133.64 99.5102C132.609 101.493 128.94 101.93 125.708 101.632C125.673 101.15 125.497 100.69 125.2 100.308C124.903 99.9269 124.5 99.6423 124.042 99.4903C122.69 99.0606 121.254 98.9653 119.857 99.2127C119.381 99.2127 118.925 99.2127 118.509 99.2127C118.007 99.2484 117.529 99.4423 117.144 99.7666C116.76 100.091 116.487 100.529 116.367 101.017V101.255C113.133 101.596 109.877 101.675 106.63 101.493V100.998C106.655 100.795 106.637 100.589 106.577 100.393C106.517 100.198 106.416 100.017 106.281 99.8638C106.146 99.7102 105.98 99.5869 105.794 99.502C105.608 99.4171 105.406 99.3726 105.202 99.3713H99.6492C99.3291 99.3691 99.0174 99.473 98.7626 99.6667C98.5078 99.8605 98.3245 100.133 98.2412 100.442L97.8842 101.791C94.5794 101.954 91.2675 101.908 87.9685 101.652C87.675 101.044 87.2161 100.531 86.6443 100.172C86.0725 99.8134 85.4111 99.623 84.736 99.623C84.061 99.623 83.3995 99.8134 82.8278 100.172C82.256 100.531 81.797 101.044 81.5035 101.652V101.811C78.6457 102.037 75.7744 102.037 72.9165 101.811C72.8477 101.309 72.6166 100.844 72.2585 100.486C71.9004 100.127 71.4351 99.8963 70.9334 99.8275C68.0851 99.5731 65.2227 99.5135 62.3662 99.649C62.0587 99.6161 61.7476 99.6445 61.4511 99.7326C61.1545 99.8207 60.8784 99.9667 60.6387 100.162C60.3989 100.358 60.2003 100.599 60.0543 100.872C59.9083 101.144 59.8179 101.443 59.7882 101.751C58.277 101.988 56.7382 101.988 55.227 101.751V101.434C55.149 100.936 54.915 100.475 54.5586 100.119C54.2022 99.7627 53.7418 99.5286 53.2438 99.4507H51.8358C51.0105 99.3943 50.1822 99.3943 49.3569 99.4507H48.1273C47.8704 99.4618 47.6211 99.5411 47.405 99.6805C47.1889 99.8199 47.0138 100.014 46.8978 100.244C46.7193 100.601 46.5408 101.037 46.3623 101.493V101.692C44.6965 101.692 43.0108 101.553 41.3847 101.473C39.4015 101.374 37.4184 101.255 35.3163 101.236H31.6078C27.1993 101.355 22.7908 100.995 18.4596 100.165L17.3292 100.125C12.8473 99.1135 4.61733 97.2494 2.85234 93.521C3.03082 92.8269 3.80425 91.0421 4.33969 89.8125C6.12452 85.6876 6.65996 84.339 5.94603 83.3276L4.43885 80.7495C4.63534 80.0419 4.87373 79.3465 5.15278 78.6672L5.6089 77.2393L20.6411 75.3752C24.6073 74.8992 29.3867 74.2844 33.2538 76.0891C33.7496 76.3271 34.2454 76.6047 34.7412 76.8625C35.9851 77.6536 37.3627 78.2113 38.8066 78.5086C40.5641 78.6775 42.3372 78.4609 44.0024 77.8739L45.5096 77.4773C51.1615 76.2081 56.8333 78.3301 62.8224 80.5909C68.8114 82.8517 75.4351 85.3306 81.9795 83.7639C82.9115 83.5458 83.8436 83.2285 84.7559 82.931C86.4317 82.2307 88.2348 81.8862 90.0508 81.9196C91.7395 82.263 93.3435 82.937 94.7707 83.9027C96.6079 85.119 98.6957 85.9053 100.879 86.2032C102.127 86.2303 103.373 86.097 104.587 85.8066L105.38 85.6677C110.737 85.0846 116.15 85.2985 121.444 86.3024L124.181 86.5998C140.046 88.583 170.526 88.3648 175.008 84.4184L175.207 84.2002L175.544 83.7441C176.56 82.4327 177.506 81.069 178.38 79.6588C178.594 81.1637 178.493 82.6969 178.082 84.1606Z" fill="black"/>
</svg>
